<svg xmlns="http://www.w3.org/2000/svg" xmlns:xlink="http://www.w3.org/1999/xlink" width="{{ .width }}" height="{{ .height }}" viewBox="0 0 24 24" version="1.1">
<g id="surface2747">
<path fill="currentColor" d="M 11.664062 2.003906 C 6.621094 2.171875 2.375 6.25 2.023438 11.289062 C 1.65625 16.617188 5.46875 21.121094 10.507812 21.878906 L 10.507812 14.648438 L 8.890625 14.648438 C 8.164062 14.648438 7.578125 14.0625 7.578125 13.335938 C 7.578125 12.609375 8.164062 12.023438 8.890625 12.023438 L 10.503906 12.023438 L 10.503906 10.273438 C 10.503906 7.378906 11.914062 6.105469 14.324219 6.105469 C 14.679688 6.105469 14.984375 6.113281 15.242188 6.128906 C 15.878906 6.15625 16.371094 6.6875 16.371094 7.324219 C 16.371094 7.988281 15.835938 8.523438 15.171875 8.523438 L 14.730469 8.523438 C 13.710938 8.523438 13.351562 9.492188 13.351562 10.585938 L 13.351562 12.023438 L 15.222656 12.023438 C 15.8125 12.023438 16.265625 12.550781 16.175781 13.132812 L 16.066406 13.835938 C 15.992188 14.304688 15.589844 14.652344 15.113281 14.652344 L 13.351562 14.652344 L 13.351562 21.898438 C 18.234375 21.234375 22 17.0625 22 12 C 22 6.367188 17.339844 1.820312 11.664062 2.003906 Z M 11.664062 2.003906 "/>
</g>
</svg>
