<svg fill="#000000" xmlns="http://www.w3.org/2000/svg" viewBox="0 0 16 16" width="{{ .width }}" height="{{ .height }}"><path fill="currentColor" d="M 9.914063 0.71875 L 9.085938 1.28125 L 11.894531 5.367188 L 12.71875 4.800781 Z M 7.695313 2.453125 L 7.039063 3.207031 L 10.917969 6.582031 L 11.574219 5.828125 Z M 6.226563 4.804688 L 5.773438 5.695313 L 10.210938 7.953125 L 10.664063 7.0625 Z M 5.363281 7.140625 L 5.136719 8.109375 L 9.976563 9.242188 L 10.203125 8.265625 Z M 3 9 L 3 14 L 12 14 L 12 9 L 11 9 L 11 13 L 4 13 L 4 9 Z M 5.03125 9.25 L 4.96875 10.25 L 9.972656 10.566406 L 10.035156 9.570313 Z M 5 11 L 5 12 L 10 12 L 10 11 Z"/></svg>